<svg width="1280" height="525" xmlns="http://www.w3.org/2000/svg"><title>background</title><path fill="none" d="M-1-1h1282v527H-1z"/><g><title>Layer 1</title><path fill="#55e9bc" d="M36.95 128.677c-3.047-1.024-1.51 3.933-4.542 4.537-3.025.615-6.66 2.124-4.233 2.736 2.42.6 7.864-.307 8.48-1.216.6-.905 1.205-5.754.294-6.057zM13.636 135.337c-3.636-.296-7.275 0-7.875 1.212-.613 1.218 3.328 2.123 5.75 2.123s7.266-1.52 6.363-1.817c-.91-.307-4.237-1.52-4.237-1.52zM33.622 108.987c-1.23.37 2.12 2.422 3.327 2.422 1.218 0 3.337-3.333.91-3.333-2.42 0-1.208 0-4.238.91z"/><path fill="#55e9bc" d="M44.22 84.146l1.823 1.52c1.812 1.508 4.843 2.11 7.566 2.417 2.732.307 2.732-1.508.607-3.325-2.114-1.816-2.73-1.524-4.546-1.816-1.817-.307-2.113-2.125-6.957-2.125-4.854 0-4.244-2.42-4.854-3.634-.605-1.216 4.237-.61 5.457-.31 1.213.31 6.05-3.637 6.05-3.637s7.88-3.018 8.786-2.417c.912.602 5.458-.602 7.57-1.214 2.126-.604 3.334-3.935 3.334-3.935s2.73.915 4.244 2.425c1.513 1.51 4.85 0 5.755 0 .907 0 5.453 3.032 5.453 3.032s6.057 0 8.48-.308c2.425-.305 8.784-.305 11.21.307 2.418.6 13.32 1.203 14.54 1.203 1.21 0 7.26 2.122 11.202 1.213 3.942-.908 5.755.61 6.667.91.9.304 1.812.304 3.333 2.122 1.51 1.822 3.024.3 5.15-.91 2.113-1.213 1.816-2.43 1.816-2.43l1.817-.296c1.817-.305 3.025.603 8.177.914 5.15.3 3.937-.915 7.566-2.125 3.64-1.214 7.275 1.507 8.488 1.21 1.208-.305 2.724-2.722 3.635-1.518.91 1.213 2.415 3.64 2.415 3.64s3.943-3.026 5.15-3.026 4.854 1.2 6.974.904c2.12-.304 10.294-.304 12.113 1.213 1.812 1.513 6.358 1.21 8.78 2.722 2.42 1.522 4.85-1.21 3.635-1.813-1.214-.61-4.24-3.026-4.24-3.026s-4.546-5.45-5.15-6.363c-.6-.906-1.51-.906-2.724 1.516-1.213 2.417-5.753 2.417-10.905 2.724-5.146.305-1.817-2.418-7.572-2.725-5.754-.306-3.63-2.423-1.817-2.423 1.818 0 3.027-3.64 3.63-5.762.616-2.123 2.73-1.816 6.973-1.51 4.23.303 5.45-.613 9.692 0 4.24.606 3.938-1.816 8.177-1.52 4.238.306 2.12.907 4.545 2.428 2.423 1.512 3.938 1.21 7.267 2.724 3.333 1.517 2.125 1.517 3.64 1.825 1.517.296 6.666-.61 9.688-.915 3.03-.298 5.458-.612 6.974 1.21 1.517 1.818 1.213 3.94 3.338 5.45 2.114 1.52-1.218-5.45-1.218-7.87 0-2.425 4.24-.308 6.968-.308s5.75-.907 6.357.306c.61 1.21-3.937 3.03-1.212 5.76 2.73 2.725 4.546 3.632 6.968 3.632 2.42 0 7.874.6 5.453 3.934-2.423 3.33-8.777 3.03-10.9 3.03-2.126 0-5.76 1.214-4.85 3.03.91 1.817 5.754.908 9.083.908 3.338 0 13.63.91 16.353 0 2.733-.91 2.125-4.546-.906-5.456-3.026-.908-.604-2.726 2.432-2.122 3.032.61 6.05-.908 5.447 0-.605.91.307 3.032.307 5.455 0 2.422.9 3.945 3.02 3.33 2.126-.6 2.428-.908 4.548-1.208 2.124-.304.91-5.457-.31-8.183-1.195-2.72-2.112-4.242-1.81-5.75.306-1.517 3.635-1.817 5.446-.306 1.822 1.52 4.245 4.54 4.245 4.54s3.642 2.12 4.85 4.546c1.214 2.43 1.516 1.822 3.938.304 2.42-1.515 3.025-1.21 5.15.303 2.125 1.516.604 4.546.604 5.455 0 .913 3.03 0 3.63-1.818.614-1.814 3.036-1.814 4.558-2.42 1.505-.607 1.505-4.248 1.505-4.248s-3.938-.908-7.875-.604c-3.933.297-5.15-.304-8.17-2.423-3.03-2.115-1.22-3.633-2.735-5.75-1.514-2.123 4.85-3.34 8.787-5.152 3.933-1.816 7.874-.61 6.968 3.937-.912 4.546-1.512 3.945 3.025 3.036 4.546-.914-.31-4.847 1.816-5.16 2.125-.3 7.57-1.206 9.396-.906 1.812.307 11.806-.906 14.238-.906 2.422 0 6.354 2.125 9.083 3.634 2.73 1.52 10 3.636 11.812 4.542 1.817.908 14.54 2.727 15.752 3.03 1.214.308 1.214 3.938 2.423 6.97 1.22 3.03 4.546.91 5.754.91 1.215 0 5.457 2.12 6.666 3.63 1.208 1.523 10.303 2.726 10.303 2.726s-2.118 2.722-3.03 3.633c-.906.91-3.03 1.517-4.843 2.73-1.823 1.21-3.942-.305-6.37-1.82-2.416-1.516-6.666-2.425-7.566-1.822-.912.613-.297 1.822.31 2.728.592.915 4.536 2.125 6.962 3.943 2.42 1.82 1.813 3.64 2.12 6.056.3 2.426-2.43-.91-5.452-1.51-3.037-.605-3.333 2.415-3.333 2.415s-3.937-.295-5.754-.295c-1.817 0 0 0-3.333-2.428-3.328-2.416-2.726 1.52-4.54.308-1.814-1.216-3.63-3.03-4.548-2.428-.91.61-3.938-2.723-5.76-2.42-1.816.302-9.076-.916-10.89-.303-1.828.605-3.338.605-4.854 1.21-1.52.61-2.118-4.244-1.212-5.754.905-1.522 3.03-1.817 6.97-.91 3.93.91 4.237 0 5.147-1.52.906-1.51 1.812-3.017 6.052-4.233 4.25-1.216-.296-2.125-1.505-2.726-1.22-.606-2.733-1.82-3.64 0-.907 1.818-3.026 3.943-3.026 3.943s-2.427 0-5.76-.307c-3.333-.31-.906-1.516.61-2.125 1.51-.602 3.332-4.236 1.81-5.147-1.51-.91-2.12-1.515-4.843-.91-2.724.605-.91-2.126-2.724-3.032-1.818-.907-1.22.61-1.22 1.823 0 1.21-2.725.91-2.725.91s-4.245-.61-5.754 0c-1.516.603-4.238 1.812-3.328 2.728.906.91 3.933.91 4.838 3.63.912 2.727-3.932 3.34-4.838 3.635l-4.546 1.52s-3.636-.908-6.666-.908c-3.025 0-3.938.297-3.327 1.508.604 1.216 2.12.603 3.02.603.912 0 .912 1.522 3.642.91 2.73-.603 2.125-1.512 4.54.913 2.43 2.425 4.855 2.118 8.792 4.245 3.934 2.12-.615 4.547-2.73 4.547-2.118 0-2.118-1.824-3.333-3.635-1.213-1.825-6.056.3-6.056.3s-3.942 2.12-6.05 2.12c-2.126 0-3.647-.306-.918-2.42 2.73-2.125-3.333-2.432-3.333-5.455 0-3.032-1.208 3.023-1.208 4.543 0 1.51-2.422.302-7.58.912-5.145.6-4.238 2.42-10.904 6.655-6.666 4.245-8.17 5.154-7.57 9.094.61 3.938 2.124 2.723 4.848 3.333 2.724.603 1.813 5.145 3.938 4.837 2.123-.294 3.64-1.817 7.878.307 4.238 2.12 6.358 2.728 11.51 3.633 5.148.907 8.48 2.428 11.212 1.82 2.724-.606 4.542.303 4.542 2.425 0 2.123 1.816 2.424 1.51 5.153-.303 2.724 3.338-2.432 3.338-2.432s1.505 4.557.29 5.155c-1.202.604.31 3.327 1.825 3.034 1.514-.31 3.64.905 5.453-.615 1.816-1.51-.907-6.05-.907-7.872 0-1.814-1.822-2.724-2.73-4.546-.91-1.818 2.423-2.124 3.638-.304 1.22 1.818 3.334.303 5.453-1.213 2.118-1.512 2.118-4.24 2.118-4.24s-3.628-4.846-6.353-6.053c-2.734-1.216-1.525-1.517 1.197-2.123 2.733-.61 0-1.514.612-4.847.604-3.334.604-5.452 2.12-5.452s6.964-.91 11.51-.603c4.547.306 6.666 3.63 9.696 3.938 3.025.294 7.868.905 8.78 2.418.907 1.514-3.333 1.82-1.208 4.246 2.114 2.423 2.42 2.12 4.54 3.03 2.12.907 4.536.303 7.272-3.338 2.733-3.63 3.934-3.937 4.837-3.33.916.604 6.678 7.268 8.188 8.788 1.518 1.51 4.543 4.835 4.845 6.36.31 1.507 4.546 1.507 5.755 1.507 1.214 0 5.755 3.338 6.357 5.158.614 1.818 1.823 2.427 5.755 3.334 3.942.906 0 4.234-.906 6.05-.904 1.825-1.51 2.43-2.724 4.548-1.208 2.12 0 0 1.51.905 1.52.915 2.12 2.123 4.547 1.52 2.43-.605 3.635 0 4.546 1.818.905 1.822 2.118 3.333 3.03 4.838.9 1.52 0 3.943-1.22 2.433-1.204-1.52-5.15-.614-5.15-.614s-1.81 1.817-2.416.908c-.604-.908-1.82-2.112-3.94-1.51-2.113.603-4.233 0-6.66.305-2.428.297-3.332-1.21-1.816-2.426 1.52-1.205 1.817-5.75 4.844-7.573 3.03-1.816 2.125-4.54 0-4.54-2.118 0-3.023 2.724-4.238 3.333-1.214.603-3.635.603-5.76 2.117-2.113 1.513-7.267.912-5.144 1.513 2.12.61-3.03 3.038-4.85 3.038-1.82 0-1.212-3.946-1.212-5.462 0-1.516-2.424.91-2.424.91s-4.85-2.726-6.666-.91c-1.823 1.822-4.546 2.73-6.66 4.546-2.125 1.822-6.97 4.843-6.97 4.843s1.817-.912 5.452-1.817c3.63-.907 3.334-.6 6.354-2.11 3.038-1.52 6.062-2.126 8.187.6 2.114 2.726-.902 4.234-.902 4.234s1.207 2.125 2.416 2.73c1.215.608 1.518-.605 3.637-1.822 2.12-1.205 1.213 2.43 1.82 3.638.604 1.213 2.726 1.213 3.938-.303 1.21-1.514 2.114-2.724 3.02-1.814.912.91 1.828 3.027 2.73 5.15.912 2.124-6.358 2.73-7.566 3.027-1.21.305-6.976 1.52-7.876 1.822-.91.296-3.932 3.017-6.36 3.017-2.422 0-2.125-3.63-2.422-5.744-.31-2.124-3.338.297-3.636 1.21-.303.904-3.03.607-5.15.904-2.12.308-5.752 2.43-5.752 4.846 0 2.425 2.724 3.638 1.816 4.846-.907 1.215-6.363 2.124-8.482 1.518-2.12-.61-5.15.908-4.24 2.122.908 1.208.308 3.025-1.815 2.728-2.125-.307-2.423 1.818-1.517 3.326.905 1.513-2.73 4.54-3.635 3.33-.906-1.206-2.728-1.817-2.728 0s.604 3.333 2.43 5.757c1.81 2.423-3.94 3.945-6.06 5.76-2.124 1.815-9.395 7.872-12.414 9.085-3.032 1.21-3.032 5.15-1.52 6.66 1.52 1.52 3.332 7.873 4.243 9.998.906 2.125-.308 8.173-3.03 7.875-2.726-.307-1.213-3.938-3.938-4.85-2.73-.904-4.244-6.36-4.85-9.998-.603-3.63-1.207-1.51-3.03-.306-1.815 1.216-3.635-2.417-4.54-3.325-.906-.907-6.058.6-9.69.306-3.636-.307-4.85 1.508-4.85 2.417 0 .908-.6 3.63-3.938 1.817-3.328-1.817-3.942-1.817-7.27-1.817-3.334 0-6.364-.308-6.964.908-.608 1.214-3.94 3.942-6.062 4.55-2.125.605-6.058 3.64-4.24 4.234 1.825.61 1.825 4.85.605 7.27-1.214 2.428-.912 6.667-.31 10.904.61 4.246 4.25 6.97 7.578 9.696 3.33 2.73 4.547 3.638 7.875 1.212 3.338-2.422 4.537-.906 5.458-.605.9.31 3.33-1.516 2.417-4.237-.907-2.724 1.218-5.15 3.94-4.85 2.726.31 6.66-.908 8.78-.6 2.125.296 3.333 6.048 0 8.475-3.327 2.43-1.51 6.064-2.12 8.79-.604 2.724-3.332 3.325 0 3.325 3.34 0 2.434.608 4.543.907 2.123.31 4.243-1.813 6.368-2.12 2.115-.294 7.568 4.546 6.656 6.976-.9 2.424-1.812 6.657-1.505 10.598.298 3.938 1.506 4.246 2.11 5.45.612 1.22 3.035 3.946 5.76 2.732 2.724-1.218 5.452-2.125 6.357-3.338.916-1.208 6.672 2.12 6.062 3.036-.61.896 2.12 1.812 3.932.896 1.816-.896 2.733-2.424 4.55-4.845 1.814-2.425 4.845-4.538 6.36-4.845 1.516-.297 5.15-3.94 7.566-3.326 2.433.6-.906 3.633-1.21 5.445-.295 1.81 0 6.972 1.21 7.27 1.22.296.614-3.64 2.125-6.36 1.516-2.727 4.54-4.245 6.062-4.245 1.51 0 2.724 6.366 4.842 4.55 2.12-1.816 6.36-1.52 7.27.3.905 1.818 1.816 2.726 1.816 2.726s1.52-1.203 1.52-2.724c0-1.515 4.842-3.036 7.878-1.214 3.024 1.816 1.816 2.424 3.322 2.73 1.52.3 3.03-3.94 3.94-4.248.906-.31 0 4.85-2.118 7.574-2.12 2.735 1.812 1.824 1.812 1.824l.904.91c.912.9 3.942-.91 5.155.9 1.218 1.816 3.338 2.422 5.15 5.762 1.814 3.326 4.546 2.414 8.17 1.812 3.642-.604 8.19 1.818 11.814 5.763 3.637 3.935 3.035 6.964 5.45 6.964 2.43 0 3.026 3.325 3.026 4.536s-5.44 3.943-8.48 4.55c-3.027.605-3.027 3.642 1.818 2.73 4.848-.912 2.73-2.73 5.754-3.637 3.03-.912 6.062 1.205 3.338 4.842-2.732 3.63-8.183 3.94-3.338 4.537 4.85.613 2.125-.604 4.85-4.23 2.726-3.635 2.422-2.424 4.25-2.424 1.81 0 5.74.912 7.26 2.117 1.523 1.215 5.446 3.03 7.88 4.537 2.417 1.52 5.452.912 7.267.305 1.812-.598 6.97 1.818 8.785 4.244 1.812 2.43 6.364 2.73 8.48 3.642 2.12.904 5.456 4.535 5.755 7.568.308 3.023-3.328 9.395-3.636 10.906-.3 1.508-5.143 6.963-9.69 10.6-4.546 3.635-1.822 7.88-1.517 9.69.298 1.817-3.03 8.474-2.118 9.993.903 1.513-1.222 4.847-3.032 6.968-1.816 2.123-3.03 6.053-4.237 7.865-1.21 1.824-5.148 1.223-8.785 2.133-3.625.9-5.457 1.812-5.457 1.812s-6.356 3.03-9.987 5.447c-3.63 2.43 1.21 6.672-.608 9.998-1.816 3.338-3.634 3.035-5.452 6.965-1.816 3.94-2.72.62-4.245 1.52-1.51.913-2.415 3.33-2.722 5.755-.297 2.426-3.323 4.848-7.26 8.482-3.94 3.633-6.37 3.02-10.607 1.816-4.238-1.216-3.63-11.52-4.238-10.003-.604 1.516-.297 6.97.31 7.887.595.9 2.422 4.234 3.934 5.145 1.516.91 1.207 2.413 0 3.935-1.21 1.518-4.537 6.98-5.756 7.273-1.208.3-10.597 1.514-12.416.604-1.816-.902-2.724 2.117-2.426 3.94.303 1.817 1.814 3.93-1.51 3.327-3.34-.605-7.882-2.73-7.882-1.226 0 1.53.905 4.86 2.73 4.86 1.81 0 3.633-1.218 2.724.903-.912 2.123-3.327 3.94-4.546 4.854-1.21.907-2.726 3.93-5.756 6.048-3.03 2.13-3.03 3.334-2.422 4.246.61.906 5.15.307 6.06.906.91.605-.904 4.854-2.12 5.758-1.21.908-6.36 5.146-8.48 6.363-2.125 1.21-2.125 4.843-1.517 6.66.603 1.815 5.448 6.366 8.17 7.27 2.734.91 8.488.603 7.886 1.513-.604.908-7.27 1.818-8.182 2.123-.9.303-5.755 1.518-8.182 1.518-2.418 0-6.964-2.428-7.875-2.428s.613-1.213 3.64-3.625c3.026-2.433-1.212-5.155-1.815-1.815-.608 3.32-1.823 4.23-3.333 4.23-1.522 0-3.334-2.128-4.246-3.032-.91-.898-4.843-1.81-4.238-5.447.604-3.64-1.816-3.322-3.634-4.844-1.818-1.518 2.426-2.723 1.816-4.244-.61-1.51-3.333-.604-3.636-2.73-.3-2.112 2.423-5.144 2.73-6.056.296-.908-1.823-2.72-2.12-4.234-.308-1.52 1.21-3.03 3.327-5.447 2.12-2.435 3.63-5.454 3.63-6.366 0-.906-1.51-4.244-1.51-6.66 0-2.42 1.51-3.332 2.124-6.67.6-3.322-2.125-2.11-2.125-4.844 0-2.73 3.03-1.816 2.427-4.537-.61-2.73 1.515-4.557 2.42-6.367.906-1.818 1.817-4.848 3.03-6.97 1.214-2.116-1.213-6.958-1.213-7.87 0-.9 3.938-2.117 2.12-3.94-1.812-1.813.604-3.333 2.428-4.855 1.817-1.5-.303-5.747.604-11.19.91-5.455 1.817-14.852 1.817-15.758s.303-4.55-1.214-6.97c-1.51-2.43-3.328-4.24-5.447-5.146-2.125-.912-4.85-3.645-6.37-3.938-1.51-.307-8.784-3.027-8.784-7.27 0-4.25-5.142-7.584-5.75-10.605-.61-3.02-5.146-9.688-5.452-12.72-.304-3.02-6.666-3.937-7.572-7.27-.907-3.335 3.03-5.757 3.63-7.878.61-2.123-2.12-6.66-2.417-8.176-.308-1.52 4.54-5.763 6.358-6.66 1.812-.91 3.338-4.85 4.535-4.85 1.218 0 .917-3.34 2.13-6.672 1.208-3.326-.604-7.862-1.517-8.48-.905-.604-1.812-4.544-3.338-5.75-1.506-1.208-4.535-.61-4.535-.61s.604 2.728-2.125 4.25c-2.725 1.506-3.333-.31-4.24-1.217s-4.244-1.216-5.75-2.72c-1.52-1.527-3.94-3.645-5.766-4.546-1.812-.917-4.54-1.825-4.232-5.457.303-3.635-3.942-5.757-5.155-6.355-1.208-.617-3.635-2.123-5.146-1.22-1.516.91-4.238-1.812-6.363-1.51-2.12.297-6.36-3.64-7.875-5.156-1.51-1.517-2.724-3.638-5.447-3.638-2.733 0-3.03.906-4.853 3.028-1.813 2.125-4.542-1.51-5.448-2.42-.91-.902-3.333-1.213-6.666-1.213s-5.753-4.537-6.96-5.145c-1.215-.61-9.693-4.548-11.818-5.76-2.12-1.214-4.245-5.76-3.338-6.964.912-1.216-1.505-5.15-1.505-5.15s-4.25-4.85-5.76-4.85c-1.51 0-6.358-8.48-9.087-10.9-2.725-2.422-9.083-7.883-10.3-10.605-1.21-2.725-1.518-6.967-4.538-4.842-3.03 2.117-.613 4.24 2.416 6.655 3.032 2.43 2.43 4.854 6.666 8.185 4.24 3.338 2.428 6.663 4.24 8.173 1.82 1.522 8.18 5.155 5.457 7.58-2.728 2.42-5.457-3.033-6.665-3.334-1.21-.305-3.94-.91-3.635-2.724.31-1.816-2.42-3.338-4.546-6.062-2.12-2.72-3.026-1.208-5.745-1.208-2.735 0-.308-3.333 1.198-4.845 1.52-1.517-1.505-3.64-3.328-4.24-1.812-.615-4.24-7.57-6.662-11.818-2.432-4.244-4.244-6.356-6.968-6.063-2.722.305-3.938-3.02-5.754-4.23-1.817-1.217-4.546-6.973-7.572-10-3.026-3.033-5.76-8.783-5.453-12.118.298-3.334 1.21-11.813 1.21-13.93 0-2.122-1.516-7.272-1.516-8.18 0-.907-1.517-2.425-2.724-2.723-1.21-.306-4.547-4.546-7.27-4.546-2.725 0-4.542-3.028-3.635-5.15.91-2.116-2.417-5.75-3.938-5.75-1.512 0-3.938-3.944-4.85-6.06-.906-2.126-3.328-2.126-2.724-.917.604 1.216-.303 3.337 1.208 3.946 1.518.6 2.735 5.445 1.518 6.05-1.21.614-3.938-1.817-6.963-3.326-3.032-1.516-1.818-7.578-1.818-9.093 0-1.515-4.244-3.027-6.062-3.027s-3.63.304-3.933-3.633c-.307-3.942-5.765-6.06-7.583-6.06-1.813 0-11.51-3.937-14.54-3.937-3.022 0-8.172-2.73-9.994-1.514-1.812 1.207-5.146-2.124-6.963-2.124-1.812 0-1.812 1.213-5.15 3.33-3.333 2.123-4.54.91-6.357 2.424-1.812 1.516-6.36 3.03-4.844-.604 1.506-3.634 1.506-4.243-.91-3.333-2.428.907-3.03 3.333-3.03 4.852 0 1.513-4.24 3.93-4.24 3.93s3.932.31 5.458 0c1.506-.293.297 3.34-1.22 4.246-1.506.91-3.635 3.33-6.06 2.73-2.418-.61-2.72-2.73-4.23-3.033-1.525-.307-4.85 2.12-10.3 4.846-5.46 2.73-4.547.606-6.667 1.518-2.12.908-9.697 3.637-12.42 3.938-2.724.297-2.125-3.333-.604-3.333 1.51 0 7.27-2.73 8.778-3.635 1.517-.91 8.183-3.333 9.993-4.238 1.823-.912 4.85-2.422 3.642-4.24-1.21-1.82-5.15.912-5.15.912s-3.03-2.73-3.933-3.337c-.91-.604-2.733 2.426-2.733 2.426s-3.932-.61-3.025-3.942c.905-3.33-2.125-3.33-2.725-1.815-.613 1.513-5.754 3.938-6.066 2.425-.3-1.516-4.842-4.546-6.05-6.97-1.22-2.42 1.208-2.725 3.932-4.847 2.725-2.12 6.665-2.723 10.005-2.416 3.326.296 5.446-3.64 4.238-3.947-1.22-.3-3.333-.606-5.15.908-1.822 1.524-6.368 1.217-6.368 1.217s-6.656 0-9.384-1.818c-2.727-1.82-4.24-4.546-4.24-4.546s5.453-2.12 9.692-2.416l3.325-1.498zm277.456 90.266c3.03.333 3.03-3.934 2.73-5.15-.302-1.214-.302-6.353.916-7.265 1.195-.91 2.724-3.635 6.05-3.942 3.328-.303 5.46 2.123 5.147 4.854-.304 2.723.608 5.446 1.822 5.446 1.213 0 4.843-2.123 3.63-3.937-1.21-1.82.905-7.88.905-5.756 0 2.12 2.433 3.638 3.947 3.333 1.516-.303-1.516-5.76-3.64-6.06-2.12-.303-6.355-.303-7.267 0-.91.3-6.062-1.52-8.488-1.212-2.417.304-6.052 1.213-7.265 3.637-1.214 2.422 0 6.963-.303 8.78-.296 1.812-.91 6.967 1.814 7.27zm16.966 0c.692 1.382 3.943.304 5.757-1.516 1.814-1.817 5.754-2.418 6.973-3.942 1.197-1.507 2.114-1.2 5.14-2.414 3.03-1.216 5.457-1.513 4.244-3.033-1.213-1.51-7.572 0-8.48-.6-.904-.605-7.274 6.66-7.274 6.66s-5.447 2.12-5.754 3.027c-.305.908-1.513 0-.608 1.818zm-31.5-23.32c0 1.626 3.024 1.813 4.84.908 1.82-.91 4.55-1.51 5.763-1.816 1.208-.307.604 1.505 3.328 1.505 2.73 0 6.062.91 6.974.613.906-.304 3.63-3.937 1.505-4.246-2.12-.3-5.446-2.422-7.26-4.237-1.817-1.816-6.06 2.423-10.004 3.937-3.94 1.517-5.146.917-5.146 3.334zM182.954 141.09c-2.48-.817.905 3.638 2.416 4.546 1.516.912 4.546.912 4.854 2.422.298 1.522 1.208 5.152 2.725 4.847 1.515-.304 1.515-3.63.306-4.847-1.213-1.207-5.754-4.846-6.666-4.846-.915 0-2.732-1.816-3.636-2.122z"/><path fill="#55e9bc" d="M332.582 99.497c-.82.904 3.634 2.217 4.443 1.007.808-1.204-2.427-3.236-4.443-1.007zM344.3 101.312c-3.222.92-.21 3.226 1.816 2.422 2.013-.803 1.005-3.23-1.817-2.422zM193.653 52.05c-.41 1.223 1.812 1.2 4.434 1.2 2.63 0 6.875 0 8.088-.602 1.21-.6 7.27-2.02 7.07-.203-.21 1.822 2.418 4.643 3.826 4.24 1.424-.405 4.25-3.026 5.657-2.018 1.418 1.01 1.623 3.433 3.036 4.037 1.413.604 5.25.604 7.065 0 1.812-.604 6.87-.604 9.093-.206 2.218.414 8.678 1.62 9.288.414.604-1.213 2.417-1.42 2.62-2.632.2-1.213 1.21-5.05 1.21-5.05s-1.21-2.216-3.226-1.207c-2.018 1.005-2.633 1.617-4.443 1.208-1.814-.4-1.814-3.637-5.05-3.023-3.23.6-3.84 2.42-4.844 3.228-1.013.812-3.234 1.41-4.033 1.01-.81-.396-5.463-3.03-5.463-3.03s-9.69-.4-10.09-1.613c-.41-1.208-2.018-3.228-6.467-2.82-4.445.4-12.118 3.028-13.336 3.028-1.2 0 1.422 2.418-.195 2.418-1.62 0-3.63-.203-4.24 1.62z"/><path fill="#55e9bc" d="M227.98 43.765c-2.335.776-1.818 3.03-.2 3.03 1.61 0 5.662-1.415 6.86-.406 1.22 1.01 4.248.204 4.04-.81-.2-1.006 1.213-5.054-1.205-5.253-2.425-.2-5.854 2.225-9.496 3.438zM255.243 41.14c-.308 1.437 1.612 2.625 4.04 2.625 2.43 0 7.674-1.213 8.074-.21.403 1.02-.195 1.826 2.625 2.222 2.83.41 4.04.817 5.657.817s1.002-2.634-.404-4.447c-1.418-1.82-1.01-1.61-4.644-2.626-3.636-1.004-7.276-1.004-9.692-.81-2.432.21-5.053-.4-5.657 2.43zM259.282 50.428c-1.525 1.336 0 5.45-.61 5.853-.603.405.206 2.22 1.823 1.82 1.618-.4 2.417-4.236 3.635-4.236 1.213 0 7.476-1.418 8.48.804 1.012 2.214 1.012 1.21 3.838 1.416 2.82.197 5.047-2.824 5.252-3.837.194-1.015-1.418-3.03-5.252-2.627-3.84.404-15.548-.605-17.166.808zM266.756 61.126c-1.4.9-.608 3.842 1.613 4.037 2.222.21 6.06-1.41 6.46-.195.404 1.21 1.81 6.663 5.452 4.846 3.635-1.82 3.436-3.438 4.45-3.636 1.002-.207-.212-4.648-1.824-5.66-1.617-1.005-6.87-.4-8.278.21-1.417.605-5.656-1.012-7.874.398zM289.577 62.95c.233.553 1.817 1.61 4.442 1.21 2.62-.408 6.45-.813 8.268-1.01 1.828-.2 2.228-3.236.21-3.437-2.028-.203-3.635-2.017-5.447-1.413-1.82.612-8.09 3.23-7.473 4.65zM288.96 54.462c-.88 2.125 8.09 3.237 7.076.812-1.014-2.43-6.06-3.225-7.075-.812zM290.58 44.162c-2.555-.615-6.86-1.404-6.86-2.016 0-.604-1.22 2.834 1.015 3.838 2.22 1.008 5.846 2.824 8.477 3.842 2.623 1.004 7.665 1.203 9.288 3.225 1.617 2.017 7.062 3.634 7.062 3.634l6.474.612s4.438-1.016 9.076-.612c4.645.404 11.51 1.015 15.35.81 3.84-.198 4.443-1.41 4.85-2.22.397-.812-7.065-2.43-8.89-2.223-1.82.198-12.123.198-15.144 0-3.03-.206-6.87-.206-9.297 0-2.418.198-4.228-1.61-6.05-2.623-1.813-1.013-5.854-4.242-8.272-4.65-2.43-.397-2.026-.397-7.08-1.615zM549.46 86.166c-.812 1.35-2.42 1.416-.812 4.242 1.624 2.822 2.83 4.438 4.24 4.238 1.414-.2 6.265-.404 6.872 1.216.604 1.616 2.225 3.03 5.647 2.014 3.434-1.008 6.255-1.606 7.062-2.822.815-1.21 6.272-1.41 6.272-1.41s4.44-3.438 2.82-4.846c-1.625-1.418-5.446-2.43-7.275-2.63-1.818-.204-3.634 1.415-7.668 1.415-4.04 0-6.667 1.612-8.285 0-1.603-1.62-8.275-2.423-8.875-1.417zM371.962 46.183c2.426 1.62 3.84.61 6.864 1.217 3.026.596 5.452 5.044 7.07 5.65 1.612.61 3.83 0 4.844-1.212 1.008-1.21 2.416-5.45 2.416-5.45s0 4.04 2.433 4.843c2.42.818 8.478-.603 10.103-.4 1.604.2 11.1 1.416 13.726 2.62 2.625 1.217 9.08 2.026 10.904 4.65 1.812 2.62 2.02 11.708 3.022 12.72 1.018 1.01 4.437-3.234 5.257-4.235.808-1.016 5.047-.407 6.46 1 1.41 1.417 4.638 4.853 4.44 6.268-.205 1.408-.81 3.63-2.023 2.818-1.2-.8-3.23-.6-2.418-2.22.81-1.615 1.21-5.042-.403-5.042h-3.027s-3.026-.81-5.05 2.222c-2.016 3.027-.408 6.06 1.01 6.06 1.408 0 4.646 0 4.646.797 0 .814-3.434 3.238-3.237 4.65.21 1.417 2.826 6.257 3.643 7.27.804 1.01 5.05 2.018 6.25 2.22 1.222.203-2.813.4-1.815 1.818 1.022 1.415 2.627 4.84 4.85 5.648 2.226.817 8.484 4.442 9.287 6.062.812 1.613 5.658-1.21 6.678-1.413 1.005-.197.8 4.242 3.63 4.442 2.82.197 3.836-.403 6.264-2.217 2.415-1.817 1.81-4.242 2.01-6.056.21-1.822 0-3.232 2.627-2.63 2.626.598 4.034-.406 3.84-2.42-.19-2.02-2.416-4.443 1.812-5.053 4.248-.604 6.47-3.228 9.096-3.228 2.623 0 9.888 1.007 10.696 0 .808-1.007 4.232-5.656 6.46-5.856 2.23-.207 8.08-.606 13.33-1.416 5.255-.806 10.904-3.834 12.73-3.64 1.812.203 6.256.203 4.845-1.007-1.413-1.212-3.438-4.033-6.47-4.033-3.027 0-.197-4.443.604-4.443.813 0 4.854.6 4.652 2.62-.197 2.023 1.214 4.645 5.252 3.85 4.032-.82 3.422-3.85 2.62-4.655-.803-.81-1.406-2.833-2.216-4.238-.812-1.418-.61-3.235 3.628-3.64 4.245-.405 10.104 1.615 9.89-1.613-.193-3.234 0-6.67 1.22-8.485 1.218-1.814 3.84-3.033 2.426-3.63-1.416-.605-3.233.808-4.646-2.224-1.406-3.028 1.22-5.25 2.826-6.465 1.617-1.204 10.095-9.085 14.743-10.295 4.642-1.212 7.873-5.858 4.642-6.866-3.23-1.01-9.69-2.827-13.928.4-4.25 3.242-6.66 6.26-11.512 5.254-4.842-1.008-4.245.402-4.44-5.253-.204-5.652-5.457-15.75-9.69-15.142l-2.455.352c-.597.086-.994.142-1.257.177-3.75-5.724-8.555-5.41-13.766-3.974-.65.18-1.31.376-1.972.582-1.887 1.806-4.887 1.806-5.887.806-3-1-6.25-1.25-9.527-1.12a62.85 62.85 0 0 0-1.96.11c-8.512-1.99-17.512 2.01-26.35 1.762-.685-.01-1.366 0-2.043.035-3.385.176-6.67.983-9.92 2.96-.667.05-1.285.1-1.85.156-2.266.22-3.693.477-3.997.78-2.416 2.417-4.64 8.48-6.854 6.863-2.224-1.61-2.633-5.648-5.454-4.04-2.83 1.617-.21 5.656-2.638 8.482-2.416 2.83-9.28 2.424-11.3 1.416-2.02-1.003-4.04-1.815-12.116-1.415-8.08.412-16.962 2.83-15.146 5.253 1.812 2.422-3.635 3.835-5.048 2.63-1.413-1.214-7.874 1.407-7.47 3.83.403 2.425-1.015 5.254-4.443 4.645-3.435-.61-5.854 1.418-6.056 3.43-.207 2.025-7.88 3.433-8.485 3.433-.628.003-10.518-.19-6.883 2.227zM330.46 242.263c-.302 3.023 2.734 2.117 6.37 2.117 3.63 0 9.992-.602 11.202.906 1.213 1.522 6.666 3.938 8.176 5.158 1.516 1.205 6.363 1.505 6.66.294.308-1.207-3.327-4.542-5.452-4.237-2.114.31-6.66-2.12-9.078-4.238-2.426-2.122-6.972-2.122-8.785-2.122-1.816 0-9.092 2.123-9.092 2.123zM352.568 233.78c-2.767.304-2.11 3.632 1.218 3.028 3.334-.607 1.516-3.336-1.218-3.028zM354.094 258.87c-2.78.498-2.125 5.903 1.208 4.918 3.327-.982 1.516-5.418-1.208-4.917zM394.07 255.533c-2.768.5-2.11 5.914 1.212 4.918 3.343-.98 1.514-5.413-1.213-4.917zM366.51 256.803s3.332.604 5.452.604c2.118 0 3.333 1.216 5.15 2.125 1.81.91 5.147-1.212 6.356-1.212 1.208 0 2.726 3.633 3.03-.31.302-3.938-3.636-5.755-6.057-6.358-2.427-.606-5.15 0-6.97.3-1.815.304-6.96 4.85-6.96 4.85zM620.337 197.434c1.213-.6 6.052-2.122 8.785-3.333 2.73-1.212 11.51-4.244 12.717-4.244 1.218 0 16.354.308 18.48-.606 2.124-.908 7.58-2.417 9.997 4.245 2.416 6.663 0 4.246-2.416 5.45-2.438 1.213.9 3.937 2.106 3.937 1.207 0 5.447 3.94 7.566 3.94 2.125 0 7.277 2.122 7.277 2.122s5.142 3.937 7.88 3.937c2.72 0 4.85 2.126 7.87-.905 3.02-3.03 6.962-6.67 9.99-6.06 3.028.608 6.366 3.03 10.294 3.03 3.943 0 11.22-.61 12.432.905 1.215 1.52-8.182 6.663-7.578 7.88.61 1.206 1.816.908 4.854-2.725 3.02-3.637 7.57-3.637 11.2-4.546 3.645-.913 5.464 4.84 6.067 6.654.597 1.82 3.327 5.157 5.438 9.096 2.125 3.937 4.238 9.384 6.67 13.628 2.426 4.244 3.94 10.605 6.365 13.326 2.42 2.73 4.54 7.275 6.05 10.91 1.522 3.63 5.155 7.26 6.364 7.564 1.22.303 6.36 7.27 6.666 9.082.295 1.813-1.816 5.765 3.018 6.062 4.856.31 9.095-2.122 10.612-2.728 1.52-.604 13.326-5.148 14.842-3.336 1.52 1.813-2.117 9.696-2.422 11.82-.307 2.115-9.092 12.418-9.396 15.14-.293 2.733-5.45 7.58-8.777 8.182-3.34.602-10.306 9.092-12.726 11.812-2.43 2.73-6.365 8.783-8.182 9.39-1.812.608-2.422 6.97-1.51 8.185.906 1.205.297 8.48 3.03 10.9 2.718 2.426 3.636 4.23 2.417 6.357-1.214 2.11.606 6.965 0 10.906-.605 3.93-3.94 9.086-5.15 10.297-1.21 1.215-8.778 3.338-11.198 6.355-2.436 3.033-4.55 5.76-3.943 7.27.603 1.522 3.03 9.087 2.718 10.905-.29 1.824-6.047 4.24-8.473 5.445-2.416 1.227-1.203 3.637-.605 6.064.605 2.414-4.232 6.36-6.357 8.477-2.125 2.12-7.885 9.39-11.818 12.11-3.932 2.73-8.48 4.853-12.418 4.554-3.922-.31-11.512 0-13.018 1.514-1.526 1.522-3.638 1.218-6.675-.296-3.02-1.52-3.332-3.643-3.615-6.98-.316-3.332-1.227-5.455-1.227-5.455s-.906-5.142-3.645-7.562c-2.723-2.434-3.63-5.152-5.137-6.98-1.517-1.812-.603-5.742-.91-9.066-.31-3.348-2.118-8.48-3.622-10.607-1.53-2.12-4.56-7.875-5.775-9.998-1.205-2.127-2.725-6.354-2.418-12.414.31-6.06 4.537-9.385 6.97-11.215 2.435-1.81.304-4.232-1.815-7.865-2.12-3.637.307-9.703-1.518-11.81-1.814-2.13-7.87-13.34-11.213-15.157-3.34-1.816-3.626-2.416-1.808-6.66 1.807-4.244 0-8.48 3.02-11.202 3.03-2.726 1.52-4.543-1.81-6.358-3.34-1.818-2.12-2.73-4.856-.607-2.73 2.12-6.354 3.33-8.47 1.215-2.126-2.127-1.52-5.46-5.464-7.882-3.932-2.416-9.08.906-10.597 1.52-1.516.603-5.757 3.33-10.007 3.937-4.23.604-7.26-.31-11.51-.31-4.23 0-7.875.31-8.477 2.432-.602 2.117-1.505 3.333-4.233 1.21-2.728-2.12-8.183-6.974-8.183-6.974s-7.572-6.046-9.086-9.692c-1.518-3.63-4.24-6.055-9.993-8.783-5.756-2.726-2.426-5.755-3.032-8.774-.6-3.03-3.634-4.247-2.12-4.55 1.52-.304 1.223-2.424 4.535-6.66 3.345-4.24 1.22-8.788.616-11.21-.616-2.427-3.63-6.06-.616-9.993 3.032-3.94 6.063-12.418 8.48-14.84 2.436-2.426 8.5-5.762 11.812-7.272 3.34-1.52 1.22-5.447 3.03-9.996 1.822-4.544 4.553-6.667 5.457-6.667.912 0 4.27-3.144 7.876-5.14 2.737-1.524 9.102.293 10.314-.31zm132.37 124.493c-.812-1.312-6.055-.912-6.973.607-.896 1.514-1.812 8.473.918 9.086 2.717.598 7.567-7.273 6.055-9.693zM807.826 366.75c-3.79-1.08-4.234 3.942-7.26 7.274-3.037 3.318-6.363 6.047-7.572 5.754-1.223-.303-7.88 2.117-5.76 6.656 2.11 4.543 1.818 9.096-.31 11.213-2.12 2.123 1.815 8.18 1.228 11.508-.62 3.334.9 5.455 5.143 5.455 4.234 0 5.758-1.52 7.572-5.455 1.812-3.938 2.115-7.87 3.934-11.203 1.82-3.334 3.34-10.303 4.245-12.115.906-1.814 2.73-7.578 2.426-10.906-.306-3.33-1.52-7.572-3.644-8.18zM917.775 288.907c-1.96.87-3.64 11.204 0 12.415 3.646 1.22 5.768-4.844 4.557-6.354-1.22-1.512-1.82-7.274-4.557-6.06zM662.75 175.925c-2.857 0-4.25 4.554-2.432 6.062 1.81 1.51 3.64 1.216 5.146-.91 1.53-2.122-1.204-5.152-2.714-5.152zM639.728 180.77c-.73 1.15 2.424 1.522 3.024.307.61-1.213-.91-3.635-3.024-.307zM675.764 185.926c-1.102.655 1.814 2.724 3.334 3.325 1.53.607 2.73 2.43 3.945 2.73 1.21.306 5.14 0 3.934-3.03-1.207-3.024-3.934-3.024-4.842-3.024-.903 0-4.846-.91-6.37 0zM603.373 124.735c-2.747.458-3.032 3.338-4.845 3.338-1.82 0-3.94.604-3.328 2.72.6 2.123 1.812 3.636 0 4.544-1.818.907.296 4.547 2.72 4.85 2.42.302 5.154-1.514 7.268-2.42 2.12-.91 5.15-2.726 5.15-5.455 0-2.734-.6-5.155-1.816-6.364-1.215-1.213-3.335-1.515-5.15-1.213z"/><path fill="#55e9bc" d="M606.71 115.652c-2.453.817-1.52 3.93-.31 5.447 1.214 1.512 3.34 4.848 6.356 6.057 3.032 1.216 9.396 2.42 6.98 3.637-2.436 1.216-6.68 4.543-7.274 6.36-.615 1.816 5.15 3.636 5.15 3.636s-1.823 2.123-.31 2.724c1.52.61 2.434-2.117 4.852-2.117 2.416 0 7.266 1.516 9.694 1.516 2.424 0 6.354-3.333 6.058-5.456-.31-2.12-3.338-5.447-6.058-6.663-2.73-1.216-5.763-6.666-7.57-7.876-1.823-1.21 1.812-4.245-.31-6.354-2.12-2.125-3.635-1.818-6.062-3.338-2.416-1.516-4.54.307-6.063 2.123-1.504 1.813-3.322-.31-5.133.302z"/><path fill="#55e9bc" d="M626.697 157.75c-.31-2.723-6.36-5.15-10.297-5.75-3.938-.604-3.338-2.42.902-2.726 4.245-.308 3.943-1.816 7.567-2.422 3.64-.607 7.28-1.517 10.003-1.817 2.728-.307 2.728-2.73 2.728-4.546 0-1.817 7.57-2.43 7.57-2.43s4.244-3.925 6.672-5.748c2.414-1.818 6.654-1.518 9.992-.61 3.328.907-.307-2.124-1.52-3.63-1.215-1.515-.31-4.853.615-6.67.9-1.82 6.358-2.73 7.866-2.117 1.516.602 0 3.328.303 5.755.306 2.426 2.728 3.94 2.728 3.94l2.42-.304h3.94c3.94 0 2.724 2.426 5.757 1.513 3.023-.91 6.66-2.118 7.88-2.725 1.198-.61 4.538-.61 9.077.906 4.547 1.513 2.125-2.728 3.033-5.153.906-2.423 2.717-6.655 5.746-6.363 3.03.307 5.472 2.124 7.886.614 2.416-1.518-4.54-3.635-4.54-4.544 0-.91 5.75-.91 10.896-1.216 5.152-.3 8.184 0 10.607-.6 2.417-.607-1.817-4.853-2.735-4.853-.896 0-6.967.607-10.002.306-3.02-.305-6.354 1.815-9.082 2.424-2.724.604-3.327-3.64-4.845-5.455-1.52-1.818-2.125-5.143 1.812-6.967 3.938-1.812 10.916-5.756 12.11-7.576 1.218-1.815-4.833-1.507-10.587-1.213-5.76.307.91 1.822-4.557 7.277-5.44 5.45-8.17 1.815-12.41 5.45-4.25 3.63-1.22 3.938 2.73 5.15 3.93 1.21.604 4.85-.307 5.756-.9.905-5.46 4.243-4.846 6.666.604 2.413-3.033 3.937-3.033 3.937s-11.217 2.42-13.338 2.723c-2.11.305-2.728-1.516-2.11-3.333.605-1.82-2.434-6.054-2.725-8.78-.307-2.73-4.842 1.213-5.158 3.03-.3 1.818-6.06 2.115-9.38.912-3.34-1.216-5.163-5.76-4.542-6.67.604-.908-1.818-5.454-1.818-6.67 0-1.2 6.656-6.05 12.402-7.262 5.772-1.208 13.03-8.186 16.97-11.204 3.945-3.032 5.762-6.668 6.98-7.575 1.196-.91 22.103-6.363 29.685-7.576 7.56-1.206 24.232 1.52 26.95 2.122 2.73.602 4.237 1.508 10.91 3.937 6.665 2.425 12.413 2.425 16.645 3.035 4.244.604 6.973 1.812 9.71 3.027 2.72 1.216 0 2.125-6.685 4.237-6.66 2.12-11.2 1.52-14.83.304-3.643-1.213-5.756-1.213-3.03.603 2.72 1.816 1.815 2.728 2.114 5.452.3 2.73 4.544.307 5.456-.3.91-.604.91-1.817 4.248.3 3.324 2.125 4.537.908 6.04.606 1.522-.3.313-3.63 1.22-4.846.906-1.213 4.553-1.213 5.465-1.816.903-.6 3.017-1.51 4.833-1.817 1.812-.305 1.516 2.723 3.346 3.632 1.804.906.9-3.937.282-5.14-.602-1.217-1.2-4.547-.283-5.46.9-.91 7.267-1.516 8.77-.3 1.518 1.213-2.414 4.846-1.508 6.963.912 2.12 3.02-1.204 4.54-3.026 1.515-1.818 4.84 0 10.294-.91 5.45-.908 4.244-3.94 9.986-2.12 5.77 1.82 4.25 1.82 6.07 0 1.82-1.82 5.146.306 8.47-.908 3.34-1.216 3.34 0 5.772 1.213 2.416 1.208 5.447-2.43 6.66-3.64 1.207-1.214 6.05-1.214 8.48-.904 2.433.3 5.444 1.813 7.872 1.813 2.422 0 6.357 1.817 6.357 1.817s5.152 1.82 6.373.608c1.2-1.216-.31-2.73-4.855-4.854-4.54-2.11-2.728-5.742 0-6.048 2.73-.305 2.427-1.816 4.552-3.03 2.113-1.207 4.846-5.756 7.262-4.85 2.426.91 4.55 2.728 7.588 4.24 3.014 1.517.29 3.64-.312 5.148-.6 1.52.605 7.27 1.514 8.177.918.917-.906 4.247-3.322 5.763-2.424 1.51-5.77 4.846-4.844 5.447.89.604 8.166-2.724 8.166-2.724s4.557-5.45 6.666-6.963c2.12-1.522 4.238-1.522 4.842.303.61 1.812 3.94 2.42 6.977 1.21 3.032-1.21 0-2.12-.3-4.85-.312-2.73-5.146-1.207-7.885-.608-2.73.61-4.854 3.338-5.742 3.338-.93 0-.93-1.822-.316-4.554.61-2.72-1.203-4.234-1.203-5.742 0-1.522.904-1.522 3.023-4.543 2.125-3.037 2.125 2.114 2.424 4.838.304 2.727 2.423 1.522 4.237 1.213 1.816-.305.916-3.937 2.436-5.755 1.51-1.822 4.848-2.12 7.86.61 3.03 2.728 2.726 1.814 6.37 3.025 3.635 1.213 3.94 1.518 4.246 4.245.294 2.726 2.72 3.025 4.23 2.11 1.51-.907.308-4.54-.61-5.743-.9-1.216-8.178-3.335-10.607-5.458-2.408-2.122 1.22-2.122 3.953-2.122 2.73 0 7.873.305 7.873.305s5.75-1.216 8.778-3.338c3.03-2.112 5.156-2.112 8.182-3.325 3.02-1.217 7.883-1.217 10.91-.604 3.02.604 5.137-1.212 8.178-2.428 3.025-1.205 6.357-2.12 7.27-1.51.907.604 8.462 2.42 9.68 2.125 1.216-.31 3.94-1.213 8.786-3.038 4.85-1.816 2.73-1.508 4.535-2.422 1.825-.908 4.854-1.21 11.216 1.516 6.357 2.733 0 0 1.818 1.82 1.81 1.817 2.723-.306 6.967-.912 4.247-.6 6.974 0 9.692.304 2.73.303 8.783.303 11.508 2.12 2.732 1.814-1.812 5.755-3.332 6.968-1.518 1.21 2.424 2.12 3.645 1.814 1.197-.304 11.2 0 15.736.607 4.556.606 6.368 2.73 8.48 2.73 2.126 0 5.46-.905 6.673-2.124 1.213-1.212 8.777-1.815 11.2-2.117 2.425-.303 9.095 0 10.01.6.907.61 1.81 3.64 1.81 6.063 0 2.43 2.722 4.54 4.845 4.848 2.125.306 6.06-3.633 7.56-4.24 1.522-.606 3.333 2.73 4.24 1.823.91-.91 8.49.294 11.522-1.216 3.02-1.513 4.832 0 6.357-.607 1.504-.606 3.938-3.934 3.938-5.152 0-1.212 1.215-2.117 0-3.933-1.22-1.817-5.463-.612-10.004-1.817-4.534-1.213-.29-3.03 1.522-4.245 1.816-1.205 4.84 0 7.87.615 3.024.6 1.827-.915 3.34-.915 1.52 0 6.96 1.516 9.985 1.516 3.023 0 5.46 3.325 5.46 3.325s-8.485 2.426-10.3 2.426c-1.812 0-.605 2.422.91 2.422s3.635.912 5.754 2.427c2.118 1.514 11.51 0 12.716 0 1.22 0 4.86 1.514 8.488 3.63 3.63 2.123 6.06 3.03 6.06 3.03s5.144 0 10.296-.603c5.145-.612 11.82-.612 13.03.296 1.206.91 4.546 1.818 6.962 3.938 2.41 2.123 4.238 1.22 7.576.91 3.332-.308 6.66-.91 9.688-.91 3.033 0 13.02-.304 14.84 2.427 1.812 2.73 3.94 2.122 3.94 2.122s2.728-4.855 3.937-5.763c1.22-.906 5.15.613 7.572 1.814 2.42 1.217 14.23 0 17.27.618 3.023.6 7.27 3.63 4.85 6.057-2.426 2.418 1.818 6.666.912 9.08-.912 2.43-3.338 2.727-5.762 3.333-2.43.606 2.424 3.64 4.55 5.765 2.118 2.12-1.222 2.72-3.347 1.814-2.113-.908-7.57.306-14.543 2.123-6.967 1.816-9.69 5.445-16.95 5.747-7.272.307-4.247-.302-13.323-.302-9.088 0-8.79 2.425-10.607 5.458-1.816 3.026.912 2.422 0 4.84-.906 2.428-2.42 5.152-2.42 7.274 0 2.117-5.46 2.426-7.277 4.24-1.814 1.823-4.842 6.363-9.99 9.69-5.146 3.334-8.78 8.487-8.78 8.487s.913-5.153 3.327-8.786c2.422-3.63-2.727-8.788-3.03-12.725-.296-3.937 1.522-5.152 4.542-8.785 3.03-3.63 10.31-4.85 13.334-6.66 3.034-1.823 15.456-10.296 15.456-10.296s-2.43 1.508-5.45 2.724c-3.044 1.204-6.673 3.633-9.09 3.633-2.44 0-1.51-2.43-1.823-4.85-.31-2.415-6.06-.602-8.188 1.817-2.113 2.425-6.06 3.937-10.283 6.97-4.244 3.03-3.03 2.724-5.762 3.03-2.732.304-7.273-1.516-9.387-3.03-2.125-1.515-4.25 1.21-10.908 1.514-6.658.3-14.242-.605-17.27-.304-3.026.305-10.6 9.085-15.147 10.603-4.54 1.512-10.297 4.244-8.773 6.363 1.518 2.117 4.232-1.82 5.457-1.82 1.207 0-.912 4.246 1.812 4.246s4.227-1.526 6.97-1.823c2.726-.3 4.85 2.117 5.444 5.453.61 3.327-1.2 6.056-2.414 10.3-1.215 4.24-3.03 8.475-7.88 12.11-4.845 3.64-12.726 10.302-14.237 12.116-1.518 1.82-6.973.308-7.873-.905-.9-1.215-3.633 2.725-5.758 3.634-2.117.908-4.238 2.728-4.238 5.152s-6.05 2.424-6.05 3.937c0 1.51 3.636 5.757 5.142 7.874 1.51 2.123-.312 8.79-3.03 10.298-2.728 1.51-3.923 3.33-7.57 1.217-3.63-2.125-.603-3.34.915-6.67 1.518-3.332-1.518-5.146-2.13-6.056-.603-.906-3.024 1.816-4.23 2.117-1.214.308-1.214-2.73-.31-4.546.908-1.814-.604-5.747-1.514-6.05-.903-.307-6.665 4.542-9.085 4.235-2.44-.295-.312-5.75.604-7.266s-1.815-.307-3.636 1.21c-1.818 1.513-5.754 4.85-7.27 4.544-1.52-.305-4.544 2.418-2.112 4.237 2.418 1.817 3.33 3.333 4.846 3.634 1.504.31 5.445-.605 6.97-.906 1.507-.3 4.54 2.123 1.507 4.846-3.025 2.73-9.387 3.037-8.168 4.854 1.195 1.816 4.232 4.537 6.66 8.777 2.418 4.24 1.508 8.78 2.125 12.117.602 3.335-8.785 10.297-11.52 12.418-2.73 2.123-5.453 7.27-9.998 9.695-4.55 2.426-14.238 4.54-15.75 3.63-1.52-.906-5.762 1.52-5.453 4.85.3 3.33 2.423 3.03 2.423 3.937 0 .91-3.035 4.548-4.232 6.062-1.214 1.51-5.46 0-4.84-4.548.603-4.546 3.626-6.363 3.32-8.48-.296-2.112-3.026-3.328-4.845-1.516-1.816 1.818-7.57 6.966-7.57 6.966s2.125 5.452 4.844 7.577c2.728 2.12 4.546 5.142 8.183 9.687 3.63 4.545.908 8.48 0 11.818-.904 3.33-3.934 3.33-6.363 3.936-2.428.605-3.03 1.52-3.94 3.333-.9 1.824-5.138 3.936-5.755 2.427-.596-1.52-4.535-5.154-4.535-5.154s-2.73-5.454-6.666-8.18c-3.934-2.726-5.447-3.933-5.447-1.202 0 2.727-2.424 7.865-2.424 9.688 0 1.812-5.465-5.457-5.465-8.484 0-3.02-.906-8.18-.602-13.02.312-4.85-6.357-.31-6.357-.31s-3.032 5.146-4.536 5.146c-1.52 0-2.125-4.238-1.832-7.872.31-3.633-1.502-6.97-2.418-8.18-.912-1.215-6.057-6.056-6.963-9.394-.905-3.33-2.726-2.117-4.536-.297-1.826 1.818-1.223 1.818-8.48 1.818-7.275 0-6.977 4.543-10.62 7.265-3.63 2.73-6.647 7.876-10.895 9.692-4.245 1.812-6.063 3.63-6.063 5.755 0 2.115 0 7.564-.898 10.603-.913 3.032-1.52 7.27-3.632 10.3-2.13 3.03-3.94 7.872-5.762 7.872-1.812 0-2.434-4.23-2.434-6.965 0-2.73-5.14-9.085-6.357-11.207-1.213-2.123-5.754-11.51-5.754-11.51s-3.632-9.994-3.32-12.726c.292-2.727.292-10.296.292-10.296s-4.844 4.85-6.97 4.54c-2.116-.305-4.23-3.633-3.937-7.566.3-3.94-3.63-3.64-5.754-4.245-2.118-.605-4.845-6.052-6.354-6.052-1.527 0-2.432 0-3.64 1.814-1.208 1.816-7.57 1.51-9.097 1.51-1.522 0-10.6-.306-13.315-1.215-2.73-.905-5.758-6.356-7.275-6.958-1.502-.606-6.05 3.325-7.865 2.726-1.814-.604-5.465-3.637-9.396-5.454-3.93-1.817-5.144-6.057-6.66-8.78-1.515-2.724-6.667 1.508-6.067 4.538.615 3.03 7.28 6.97 7.28 9.093 0 2.114 1.214 2.727 4.54 5.447 3.34 2.724.607 4.242 2.723 4.843 2.12.604 5.15-2.424 8.188-3.934 3.025-1.522 2.72-3.635 4.238-3.635s1.197 3.936 3.63 4.232c2.42.31 8.784 3.938 10.302 6.37 1.52 2.416-1.518 3.937-2.725 6.05-1.22 2.12-4.845 8.182-7.886 10.606-3.03 2.42-6.352 5.75-10.898 6.652-4.54.91-5.146 3.34-8.78 3.64-3.632.308-13.63 5.155-15.145 6.063-1.51.91-9.696 3.328-12.116 2.42-2.426-.906-3.332-6.966-4.242-11.51-.906-4.538-2.107-6.967-3.018-8.783-.912-1.814-6.37-6.658-7.584-7.57-1.213-.904-4.232-8.18-4.545-11.205-.305-3.032-3.63-1.823-4.234-5.15-.603-3.335-3.942-7.877-4.546-10.002-.604-2.12-6.67.31-9.08.612-2.432.305-6.97-1.817-6.363-6.67.603-4.834 3.03-4.834 6.058-4.834 3.03 0 1.816-1.52 4.846-4.554 3.025-3.03 3.943-9.078 4.234-13.017.31-3.942-2.115-2.125-4.535-1.52-2.424.604-6.062 1.52-7.27 1.21-1.216-.3-6.054-1.817-6.958-.908-.928.908-6.064.3-7.27-1.21-1.227-1.516-7.275-3.334-7.885-4.545-.61-1.21 0-8.478-1.215-10.298-1.21-1.817-3.936.305-5.46 1.513-1.505 1.216-5.737 2.122-4.534 3.03 1.216.91 5.147 2.725 4.855 5.143-.314 2.428-3.037 3.037-4.547 4.245-1.512 1.213-4.545 3.03-5.457 1.516-.91-1.515-3.942-8.178-4.854-9.39-.898-1.205-3.63-4.235-4.527-6.964-.907-2.727-4.245-3.638-6.36-5.76-2.125-2.115-8.186-5.45-10.6-7.866-2.436-2.425-6.68-4.245-6.98-1.215-.302 3.032 4.245 3.63 6.073 6.662 1.812 3.03 5.744 4.846 7.863 5.753 2.12.907 7.885 4.846 7.885 4.846s-2.43.91-4.546.61c-2.13-.303-.31 3.637-.605 5.746-.308 2.122-2.44 2.122-3.032-.295-.61-2.43-2.436-5.152-3.635-6.062-1.213-.907-9.092-3.33-10.305-3.94-1.215-.603-6.36-3.936-6.957-6.66-.603-2.723-5.147-3.03-6.368-2.42-1.213.605-5.758 3.93-7.875 3.93-2.11 0-5.45-1.51-7.887-1.817-2.41-.293-2.71 3.94-3.623 6.364-.912 2.426-4.846.604-6.96 2.73-2.12 2.12-5.767 4.242-4.855 6.06.917 1.815 2.43 1.815-.297 3.33-2.732 1.51-4.25 4.542-6.972 4.842-2.727.307-6.354 1.516-7.876.606-1.52-.906-2.723 3.034-3.634 3.942-.9.912-2.428-2.73-3.938-4.242-1.52-1.515-5.45-.307-6.66-.606-1.212-.304-2.426-3.033-3.937-4.24-1.52-1.215-1.213-3.938 0-4.847 1.208-.91 2.416-2.422 1.515-5.148-.91-2.73-1.515-8.792 1.52-9.99 3.027-1.217 10.294 0 13.923 0 3.646 0 9.87 1.255 10.905-.616 1.5-2.707 2.11-5.73 1.807-8.463zm114.2-53.31c-1.034 2.858 6.968 5.15 8.472 3.03 1.52-2.122-6.968-7.263-8.474-3.03zm-10.3 73.307c.604 1.208 3.636-1.822 6.056-1.822 2.416 0 7.88.913 9.393-1.21 1.512-2.12 6.355-2.423 10.3-1.82 3.944.607 7.272 3.336 10 3.64 2.73.303 9.99-.304 12.415-.91 2.417-.61 1.815-4.852-2.124-6.966-3.93-2.12-7.268-5.45-10.895-6.664-3.644-1.213-4.854-2.426-2.73-3.033 2.126-.603 4.845-3.026 1.817-3.026-3.03 0-5.756.91-6.066 2.424-.29 1.514-2.112 3.334-3.32 3.942-1.214.606-4.235 3.022-5.147 1.205-.912-1.812-4.24-7.27-5.754-7.57-1.517-.304-3.94 0-5.763 3.026-1.812 3.033-3.934 6.063-5.758 7.27-1.812 1.213-4.23 4.846-2.417 5.455 1.805.604-.007 6.06-.007 6.06zm69.364-21.21c-3.667 2.454-4.85 5.764-3.337 7.88 1.52 2.122 5.756 8.784 7.877 9.39 2.12.604 9.69 1.817 6.664 4.546-3.025 2.724-3.63 3.633-6.363 3.328-2.728-.296-1.513 7.27.612 7.876 2.12.61 8.48 2.73 10.596 3.03 2.125.302 9.092-.607 8.785-2.42-.303-1.823-1.516-9.09-3.932-10.903-2.438-1.82 3.335-3.638 1.812-5.154-1.52-1.515-3.63-.91-4.846-2.725-1.215-1.817-1.818-3.63-3.635-4.846-1.81-1.217-3.323 1.213-3.026-2.122.307-3.333 4.54-5.455 6.357-3.635 1.815 1.817 7.272.91 8.485 0 1.215-.91-2.432-3.638-3.338-5.458-.906-1.817-6.967-3.325-7.873-2.724-.906.61-3.328 2.427-5.754 3.938-2.42 1.516-7.26-1.213-9.08 0z"/><path fill="#55e9bc" d="M834.783 70.82c-2.23 2.24-6.955 1.51-10.293-.305-3.338-1.818-7.27-2.115-9.076-2.727-1.822-.6.29-4.24 2.412-5.146 2.125-.905 7.877-3.64 12.127-5.455 4.225-1.814 5.443-5.447 8.475-5.447 3.03 0 17.564-3.033 19.38-2.42 1.825.606 10.6 1.204 12.433-1.22 1.812-2.42 8.17-.906 6.657 1.22-1.518 2.114-6.973 6.96-10.604 6.053-3.635-.912-13.934-.604-18.48 0-4.548.602-8.784 3.33-12.728 5.453-3.94 2.125-3.037 4.546-1.508 4.846 1.513.3 3.02 3.33 1.206 5.147zM1141.322 131.103c-1.752.495-6.967-.61-5.15 3.63 1.818 4.236 2.125 7.272 1.818 10.6-.297 3.34 0 10.3.604 11.205.605.912 3.02 3.03 4.543 2.425 1.514-.603-.605-6.66-.605-7.872 0-1.212 2.12-3.032 3.338-3.332 1.213-.3 0-5.453-1.53-7.572-1.507-2.125-3.63-3.33-2.41-3.637 1.212-.306 2.724-2.722 1.815-3.336-.913-.604-.307-2.72-2.423-2.11zM1138.297 161.996c-2.242.55-3.025 3.636-3.025 4.543s-8.48 2.72-5.766 5.147c2.727 2.42 5.463.604 9.697.3 4.234-.3 8.178-1.51 8.178-1.51s6.362.295 5.456-2.725c-.914-3.03-7.572-3.335-8.785-3.03-1.218.304-3.34-3.33-5.753-2.726z"/><path fill="#55e9bc" d="M1131.33 173.808c-2.236 1.34-.912 6.67-2.73 10.304-1.81 3.63-3.338 6.962-4.54 6.962-1.208 0-7.57 2.422-9.394 4.24-1.824 1.812-10.594-1.517-11.8 0-1.23 1.52-3.642 3.337-5.157 4.54-1.522 1.212-5.755.305-4.85 3.94.905 3.635 3.026 6.968 4.85 6.968 1.817 0 4.243-1.213 4.243-4.546s4.23 0 6.354-.3c2.125-.3 3.332-2.426 4.234-4.85.92-2.415-1.202 1.218 2.427 2.123 3.646.907 4.848-1.52 4.848-2.43 0-.906 6.666-2.417 7.89-3.324 1.204-.906 6.056-2.42 6.36-3.638.293-1.21 0-8.18 1.514-8.78 1.503-.612 3.628-.612 1.208-4.846-2.433-4.247-2.433-8.184-5.458-6.364zM1064.69 233.472c-4.49.7-7.27 10.31-3.642 10 3.643-.3 7.577-10.6 3.643-10zM1251.58 447.933c-1.213.602 0 3.94 1.21 5.14 1.218 1.222 1.823 5.454 1.507 6.67-.29 1.216-5.445 2.73-3.02 4.25 2.432 1.51 6.967 0 6.357 1.808-.602 1.815-3.02 4.25-.3 4.853 2.728.604 3.628-2.127 4.843-4.234 1.225-2.128 2.13-3.94 4.234-5.15 2.124-1.212 0-3.94-1.204-3.94-1.213 0-1.81 1.52-4.547 0-2.718-1.517-2.114-.91-3.93-3.938-1.816-3.043-2.117-6.98-5.15-5.46zM1249.148 467.317c-.482 1.467-3.02 1.814-4.834 3.328-1.812 1.514 0 2.12-5.15 5.146-5.16 3.036-11.514 6.358-12.72 9.083-1.208 2.73 1.206 4.25 6.054 4.55 4.846.306 3.633 1.208 6.97-2.433 3.327-3.62 6.358-5.744 10.296-8.77 3.94-3.034 3.94-7.577 3.94-7.577s-4.25-4.232-4.556-3.326zM1147.982 469.74c-3.332 3.325 3.35 3.325 2.438 6.663-.912 3.334 4.54 2.117 6.053 1.52 1.504-.607 5.146-7.582 4.53-9.406-.595-1.81-6.655 3.035-8.167 2.73-1.504-.3-4.854-1.508-4.854-1.508zM1125.877 446.116c0-3.094-1.816 3.326-3.025.602-1.22-2.725 1.21-7.27-1.814-5.455-3.03 1.818-4.547 3.332-4.852 4.855-.307 1.514-5.754 2.11-5.457.602.31-1.52 2.43-5.146.31-6.656-2.127-1.52-5.754-2.13-8.484-3.035-2.73-.91.314-3.94-6.967-2.437-7.272 1.52-9.99 3.342-9.99 3.342s-6.675-2.12-8.784.3c-2.125 2.43-5.148 6.97-5.148 6.97s-8.477.314-10.307.613c-1.815.305-4.85 2.72-7.56 3.63-2.737.907-7.282 1.813-9.09.306-1.82-1.52-4.85-4.23-3.94-6.053.9-1.817 7.562-4.25 5.144-7.284-2.426-3.018-3.93-3.63-4.238-5.443-.31-1.814.912-2.73-2.72-6.357-3.642-3.633-2.73-7.877-1.222-8.48 1.52-.608-.918-4.24-2.11-5.757-1.216-1.52-1.216-6.972 1.192-8.49 2.438-1.505 9.697-7.265 11.822-7.265s5.447.912 7.572-.604c2.125-1.51 8.48-.905 8.48-2.12 0-1.205.607-6.057 2.115-7.568 1.52-1.52 7.88-3.033 8.79-4.25.905-1.205 2.42-6.354 4.233-7.262 1.826-.906 3.344-3.023 6.076 0 2.715 3.033 5.445 4.244 6.64 1.215 1.224-3.03.313-2.12 3.036-4.848 2.73-2.73-.307-7.273 2.428-4.557 2.727 2.734 4.54 4.854 4.54 4.854s-.29-6.057 1.522-6.057 3.63 3.03 4.533 3.03c.912 0 9.094-1.83 10.607.298 1.504 2.117-4.25 7.877-2.125 9.998 2.125 2.117 6.357 3.322 9.39 5.146 3.024 1.813 6.655 6.058 8.18 2.425 1.515-3.637 4.544-9.08 2.42-11.812-2.108-2.725.614-11.514 1.52-12.125.912-.594 2.424 6.977 5.453 10.31 3.03 3.333 6.062 5.755 7.57 9.38 1.52 3.643 1.81 10 4.54 12.12 2.722 2.124 8.18 2.124 7.872 4.85-.29 2.73 6.06 7.876 9.395 13.032 3.332 5.15 3.64 16.354 3.64 21.197 0 4.842-3.64 11.207-6.364 14.846-2.726 3.63-3.632 8.473-4.84 10.29-1.214 1.82-.606 1.515-5.15 2.73-4.548 1.217-7.872 4.854-9.085 3.64-1.203-1.21-5.453-3.333-6.666-1.82-1.216 1.52-2.73 4.843-4.85 1.206s-6.976-3.02-7.88-3.638c-.9-.604-.9-2.42-.9-5.455 0-3.02-3.938-3.322-4.25-4.234-.29-.91-1.203-1.82-1.203-2.727zM1265.502 386.737c3.95 1.516 10.91-5.45 8.186-6.355-2.723-.908-8.186 6.355-8.186 6.355zM1227.05 401.882c-.597 2.95-4.245 1.52-6.054-1.205-1.828-2.725-5.463-4.848 0-3.637 5.447 1.217 6.348 3.338 6.055 4.842zM971.703 303.145c-3.764.744 5.453 7.27 6.36 8.18.903.908 9.085 7.878 9.085 11.21 0 3.328 5.443 11.203 6.963 12.408 1.52 1.217 9.095 5.76 10.308 8.18 1.213 2.428 3.938 3.04 3.938-.303 0-3.334.604-7.27 2.107-9.082 1.52-1.824.912-4.55-1.504-4.244-2.42.31-4.542-3.94-8.485-6.654-3.938-2.732-6.967-4.55-10.598-8.48-3.63-3.94-8.18-6.36-10.602-8.484-2.433-2.128-6.062-3.034-7.572-2.73zM983.51 287.096c-2.414.3-2.414 4.85-1.22 6.36 1.22 1.515 3.65.603 5.16 6.054 1.517 5.454 4.546 10.91 5.75 13.026 1.218 2.117 6.368 5.145 8.187 6.666 1.818 1.508 4.535-.613 3.34-2.432-1.215-1.813-3.646-4.538-3.953-6.66-.297-2.117-1.814-5.456-4.232-9.087-2.426-3.64-4.54-4.545-6.057-6.97-1.518-2.423-6.975-6.957-6.975-6.957zM1008.96 344.34c-2.208 2.765.603 4.85 1.503 5.448.912.605 4.25 1.21 7.28.906 3.028-.307 7.26-1.21 3.937-3.023-3.332-1.813-7.27 0-8.482-2.42-1.214-2.43-3.026-2.43-4.24-.91z"/><path fill="#55e9bc" d="M1026.523 346.765c-2.125.906-5.445 1.508-3.03 3.63 2.42 2.118 3.942 3.026 7.577 2.73 3.63-.305 9.086 1.818 9.385 0 .312-1.812-3.332-4.55-4.838-4.55-1.513-.002-9.094-1.81-9.094-1.81zM1056.207 356.76c-.68 2.702 4.54 3.938 4.846.91.3-3.034-4.235-3.333-4.846-.91zM1072.27 358.88c.473 3.312 6.65-1.814 6.65-1.814s4.857-.607 4.857-2.73-4.857-4.85-6.672-2.43c-1.814 2.43-5.14 4.853-4.835 6.974zM1058.936 324.954c-1.812.605-1.514 2.13-2.113 5.14-.61 3.036-3.33 5.153-.912 6.677 2.427 1.515 6.968-5.145 8.18-3.028 1.214 2.123-.306 3.03 1.82 5.748 2.12 2.73 6.06 2.428 6.06 2.428s-.307-7.27-3.64-9.088c-3.333-1.818-5.452-3.93-1.52-3.332 3.94.602 6.064-.902 5.158-2.72-.908-1.82-6.666-.91-8.496-.605-1.818.29-4.536-1.22-4.536-1.22zM1060.748 318.892c-2.11 2.12-.602 4.24 2.72 3.943 3.34-.305 10.31-1.217 11.823-1.217 1.52 0 3.63-3.94 2.427-3.94-1.213 0-9.688 1.52-10.598 1.823-.92.304-6.372-.608-6.372-.608zM1091.643 314.653c-2.77-1.188-7.86 9.992-4.23 10.904 3.63.907 6.358-9.998 4.23-10.904zM1050.152 298.6c-.12-2.14-4.854.605-5.162 2.727-.287 2.127 3.338 3.938-2.41 3.938-5.77 0-6.057 4.543-7.27 5.46-1.208.907-2.423 1.206-4.855 1.813-2.414.604-3.02 3.02-3.62 4.542-.614 1.51-4.85-2.724-6.063-1.52-1.22 1.213-.3 6.977 1.814 11.816 2.12 4.842 7.572 7.87 9.084 7.87 1.516 0 4.55 0 6.676.612 2.11.604 9.076 1.205 8.78-1.52-.312-2.72-.913-6.964 2.114-9.69 3.033-2.725 6.06-4.234 4.55-8.186-1.517-3.93-4.55-6.353-2.43-8.168 2.126-1.815 4.546-2.427 4.546-3.938 0-1.514-5.146 4.244-5.754-5.756zM1064.992 255.894c-2.12 0 .307 3.335-2.72 5.452-3.028 2.112-6.366 3.02-4.554 6.658 1.812 3.64 8.186 6.36 6.658 7.88-1.508 1.515-6.05 4.544-6.658 7.272-.604 2.72 7.27-4.245 9.396-6.978 2.12-2.724 6.354-1.2 7.27-2.724l.902-1.515s-3.326-.607-6.053-1.516c-2.73-.91-6.057 2.427-4.55-2.425 1.513-4.842 6.058-3.933 5.147-7.565-.898-3.632-3.926-4.54-4.838-4.54zM1067.72 282.247c-1.03.372-3.634 5.754-.296 5.754 3.322 0 9.08.907 7.867-.603-1.204-1.524-4.233-6.368-7.57-5.15zM1077.717 277.707c-1.213-.09-5.156 6.354.303 6.05 5.45-.3 3.93-5.756-.303-6.05zM1078.63 288.907c-4.24 5.464-3.944 4.25-6.972 3.034-3.033-1.21-7.88 2.72-6.967 4.237.9 1.518 7.58-.305 9.083 2.418 1.518 2.727 1.518 3.03 4.545 2.428 3.037-.608 6.062-4.846 5.148-6.965-.898-2.117-4.837-5.15-4.837-5.15zM1099.23 324.646c-2.274 2.273-3.34 2.438 1.817 3.338 5.14.912 6.654.912 4.535 3.328-2.12 2.426-3.63 5.45-1.814 5.754 1.814.31 7.27-1.205 7.873 0 .608 1.215-1.208 1.514 4.85 2.42 6.054.918 7.272 3.045 8.48 4.246 1.198 1.21 4.847 5.146 2.425 5.146-2.424 0-5.15 3.023-3.332 3.334 1.814.297 7.27-.908 7.582 0 .297.906 3.326 6.664 6.35 6.36 3.03-.31 4.842-5.76 6.348-7.27 1.53-1.52 7.584-2.426 8.19.303.614 2.73 2.435 5.453 6.063 7.27 3.63 1.818 7.873 3.633 8.184 2.117.295-1.516-1.826-7.27-4.25-8.18-2.422-.912-6.654-6.057-6.654-8.184 0-2.104-3.635-2.725-5.447-4.23-1.833-1.518-3.34-5.762-7.892-6.666-4.54-.912-5.748-2.43-10.592-4.844-4.86-2.434-15.754-2.434-16.062-.91-.293 1.51 0 0-3.63-1.21-3.642-1.22-6.358 0-7.27-2.13-.912-2.104-3.03-2.71-5.755.008z"/></g></svg>